<mxfile host="app.diagrams.net" modified="2021-11-19T11:41:09.879Z" agent="5.0 (Windows NT 10.0; Win64; x64) AppleWebKit/537.36 (KHTML, like Gecko) Chrome/96.0.4664.45 Safari/537.36" etag="a6SA5bptf7Kc9ftpfB8T" version="15.8.2" type="github">
  <diagram id="C5RBs43oDa-KdzZeNtuy" name="Page-1">
    <mxGraphModel dx="569" dy="318" grid="1" gridSize="10" guides="1" tooltips="1" connect="1" arrows="1" fold="1" page="1" pageScale="1" pageWidth="827" pageHeight="1169" background="none" math="0" shadow="0">
      <root>
        <mxCell id="WIyWlLk6GJQsqaUBKTNV-0" />
        <mxCell id="WIyWlLk6GJQsqaUBKTNV-1" parent="WIyWlLk6GJQsqaUBKTNV-0" />
        <mxCell id="03yPQON_WWGw00mhkOWc-1" value="&lt;span style=&quot;background-color: rgb(255 , 229 , 153)&quot;&gt;&lt;br&gt;&lt;/span&gt;" style="rounded=1;whiteSpace=wrap;html=1;rotation=0;textDirection=ltr;labelBackgroundColor=#FFF4C3;glass=0;shadow=1;comic=1;fillColor=#F0F0F0;labelBorderColor=#FFD966;" parent="WIyWlLk6GJQsqaUBKTNV-1" vertex="1">
          <mxGeometry x="286.75" y="21" width="133" height="40" as="geometry" />
        </mxCell>
        <mxCell id="03yPQON_WWGw00mhkOWc-3" value="&lt;font face=&quot;Verdana&quot; style=&quot;font-size: 7px&quot;&gt;&lt;b&gt;API GATEWAY&lt;/b&gt;&lt;/font&gt;" style="rounded=1;whiteSpace=wrap;html=1;rotation=0;shadow=1;comic=1;labelBackgroundColor=#F0F0F0;gradientColor=none;fillColor=#F0F0F0;textDirection=ltr;labelPosition=center;verticalLabelPosition=middle;align=center;verticalAlign=middle;direction=east;dashed=1;" parent="WIyWlLk6GJQsqaUBKTNV-1" vertex="1">
          <mxGeometry x="244.06" y="94.06" width="205.94" height="51.88" as="geometry" />
        </mxCell>
        <mxCell id="03yPQON_WWGw00mhkOWc-21" value="" style="shape=image;html=1;verticalAlign=top;verticalLabelPosition=bottom;labelBackgroundColor=#ffffff;imageAspect=0;aspect=fixed;image=https://cdn1.iconfinder.com/data/icons/smallicons-logotypes/32/chrome-128.png;rounded=1;shadow=1;glass=0;comic=1;fillColor=#006600;gradientColor=none;" parent="WIyWlLk6GJQsqaUBKTNV-1" vertex="1">
          <mxGeometry x="298" y="33" width="20" height="20" as="geometry" />
        </mxCell>
        <mxCell id="03yPQON_WWGw00mhkOWc-22" value="" style="shape=image;html=1;verticalAlign=top;verticalLabelPosition=bottom;labelBackgroundColor=#ffffff;imageAspect=0;aspect=fixed;image=https://cdn1.iconfinder.com/data/icons/smallicons-logotypes/32/firefox-128.png;rounded=1;shadow=1;glass=0;comic=1;fillColor=#006600;gradientColor=none;" parent="WIyWlLk6GJQsqaUBKTNV-1" vertex="1">
          <mxGeometry x="337" y="33" width="20" height="20" as="geometry" />
        </mxCell>
        <mxCell id="03yPQON_WWGw00mhkOWc-25" value="" style="shape=image;html=1;verticalAlign=top;verticalLabelPosition=bottom;labelBackgroundColor=#ffffff;imageAspect=0;aspect=fixed;image=https://cdn2.iconfinder.com/data/icons/designer-skills/128/angular-128.png;rounded=1;shadow=1;glass=0;comic=1;fillColor=#F0F0F0;gradientColor=none;" parent="WIyWlLk6GJQsqaUBKTNV-1" vertex="1">
          <mxGeometry x="297" y="10" width="20" height="20" as="geometry" />
        </mxCell>
        <mxCell id="03yPQON_WWGw00mhkOWc-48" value="&lt;font style=&quot;font-size: 6px&quot;&gt;DISCOVERY&lt;br&gt;EUREKA SERVICE&lt;/font&gt;" style="whiteSpace=wrap;html=1;rounded=1;shadow=1;glass=0;comic=1;labelBackgroundColor=#F0F0F0;fillColor=#F0F0F0;gradientColor=none;fontStyle=1" parent="WIyWlLk6GJQsqaUBKTNV-1" vertex="1">
          <mxGeometry x="565.49" y="240" width="90" height="58.63" as="geometry" />
        </mxCell>
        <mxCell id="03yPQON_WWGw00mhkOWc-59" value="" style="whiteSpace=wrap;html=1;aspect=fixed;rounded=1;shadow=1;glass=0;comic=1;labelBackgroundColor=#F0F0F0;fillColor=#F0F0F0;gradientColor=none;" parent="WIyWlLk6GJQsqaUBKTNV-1" vertex="1">
          <mxGeometry x="250" y="100" width="40" height="40" as="geometry" />
        </mxCell>
        <mxCell id="03yPQON_WWGw00mhkOWc-33" value="" style="shape=image;html=1;verticalAlign=top;verticalLabelPosition=bottom;labelBackgroundColor=#ffffff;imageAspect=0;aspect=fixed;image=https://cdn4.iconfinder.com/data/icons/cc_mono_icon_set/blacks/48x48/key.png;rounded=1;shadow=1;glass=0;comic=1;fillColor=#F0F0F0;gradientColor=none;imageBackground=none;imageBorder=none;" parent="WIyWlLk6GJQsqaUBKTNV-1" vertex="1">
          <mxGeometry x="258.75" y="110.75" width="22.5" height="22.5" as="geometry" />
        </mxCell>
        <mxCell id="03yPQON_WWGw00mhkOWc-39" value="" style="shape=image;html=1;verticalAlign=top;verticalLabelPosition=bottom;labelBackgroundColor=#ffffff;imageAspect=0;aspect=fixed;image=https://cdn2.iconfinder.com/data/icons/buttons-9/128/Button_Power_On-01.png;rounded=1;shadow=1;glass=0;comic=1;fillColor=#F0F0F0;gradientColor=none;" parent="WIyWlLk6GJQsqaUBKTNV-1" vertex="1">
          <mxGeometry x="301" y="88" width="12" height="12" as="geometry" />
        </mxCell>
        <mxCell id="03yPQON_WWGw00mhkOWc-51" value="" style="aspect=fixed;html=1;points=[];align=center;image;fontSize=12;image=img/lib/mscae/Docker.svg;rounded=1;shadow=1;glass=0;comic=1;labelBackgroundColor=#F0F0F0;fillColor=#F0F0F0;gradientColor=none;" parent="WIyWlLk6GJQsqaUBKTNV-1" vertex="1">
          <mxGeometry x="350.51" y="88" width="16" height="13.12" as="geometry" />
        </mxCell>
        <mxCell id="03yPQON_WWGw00mhkOWc-60" value="" style="whiteSpace=wrap;html=1;aspect=fixed;rounded=1;shadow=1;glass=0;comic=1;labelBackgroundColor=#F0F0F0;fillColor=#F0F0F0;gradientColor=none;" parent="WIyWlLk6GJQsqaUBKTNV-1" vertex="1">
          <mxGeometry x="397.31" y="99.5" width="40" height="40" as="geometry" />
        </mxCell>
        <mxCell id="03yPQON_WWGw00mhkOWc-36" value="" style="aspect=fixed;html=1;points=[];align=center;image;fontSize=12;image=img/lib/mscae/Application_Gateway.svg;rounded=1;shadow=1;glass=0;comic=1;labelBackgroundColor=#ffffff;fillColor=#F0F0F0;gradientColor=none;" parent="WIyWlLk6GJQsqaUBKTNV-1" vertex="1">
          <mxGeometry x="403.81" y="106" width="27" height="27" as="geometry" />
        </mxCell>
        <mxCell id="03yPQON_WWGw00mhkOWc-45" value="" style="aspect=fixed;html=1;points=[];align=center;image;fontSize=12;image=img/lib/mscae/Docker.svg;rounded=1;shadow=1;glass=0;comic=1;labelBackgroundColor=#ffffff;fillColor=#F0F0F0;gradientColor=none;" parent="WIyWlLk6GJQsqaUBKTNV-1" vertex="1">
          <mxGeometry x="628.49" y="243.70999999999998" width="19" height="15.59" as="geometry" />
        </mxCell>
        <mxCell id="03yPQON_WWGw00mhkOWc-47" value="" style="shape=image;html=1;verticalAlign=top;verticalLabelPosition=bottom;labelBackgroundColor=#ffffff;imageAspect=0;aspect=fixed;image=https://cdn2.iconfinder.com/data/icons/buttons-9/128/Button_Power_On-01.png;rounded=1;shadow=1;glass=0;comic=1;fillColor=#F0F0F0;gradientColor=none;" parent="WIyWlLk6GJQsqaUBKTNV-1" vertex="1">
          <mxGeometry x="573.49" y="242.70999999999998" width="15" height="15" as="geometry" />
        </mxCell>
        <mxCell id="03yPQON_WWGw00mhkOWc-117" value="" style="group;rotation=90;" parent="WIyWlLk6GJQsqaUBKTNV-1" vertex="1" connectable="0">
          <mxGeometry x="340" y="69.44" width="40" height="9.5" as="geometry" />
        </mxCell>
        <mxCell id="03yPQON_WWGw00mhkOWc-118" value="" style="rounded=0;comic=1;strokeWidth=2;endArrow=blockThin;html=1;fontFamily=Comic Sans MS;fontStyle=1;" parent="03yPQON_WWGw00mhkOWc-117" edge="1">
          <mxGeometry width="50" height="50" relative="1" as="geometry">
            <mxPoint x="25" y="-16" as="sourcePoint" />
            <mxPoint x="25" y="25" as="targetPoint" />
          </mxGeometry>
        </mxCell>
        <mxCell id="03yPQON_WWGw00mhkOWc-119" value="" style="rounded=0;comic=1;strokeWidth=2;endArrow=blockThin;html=1;fontFamily=Comic Sans MS;fontStyle=1;" parent="03yPQON_WWGw00mhkOWc-117" edge="1">
          <mxGeometry width="50" height="50" relative="1" as="geometry">
            <mxPoint x="15" y="21" as="sourcePoint" />
            <mxPoint x="15" y="-18" as="targetPoint" />
            <Array as="points">
              <mxPoint x="15" y="-9" />
            </Array>
          </mxGeometry>
        </mxCell>
        <mxCell id="03yPQON_WWGw00mhkOWc-43" value="" style="whiteSpace=wrap;html=1;aspect=fixed;rounded=1;shadow=1;glass=0;comic=1;labelBackgroundColor=#ffffff;fillColor=#F0F0F0;gradientColor=none;" parent="WIyWlLk6GJQsqaUBKTNV-1" vertex="1">
          <mxGeometry x="213.3" y="220" width="40" height="40" as="geometry" />
        </mxCell>
        <mxCell id="03yPQON_WWGw00mhkOWc-52" value="" style="aspect=fixed;html=1;points=[];align=center;image;fontSize=12;image=img/lib/mscae/Docker.svg;rounded=1;shadow=1;glass=0;comic=1;labelBackgroundColor=#F0F0F0;fillColor=#F0F0F0;gradientColor=none;" parent="WIyWlLk6GJQsqaUBKTNV-1" vertex="1">
          <mxGeometry x="215.3" y="226.88" width="16" height="13.12" as="geometry" />
        </mxCell>
        <mxCell id="03yPQON_WWGw00mhkOWc-66" value="" style="whiteSpace=wrap;html=1;aspect=fixed;rounded=1;shadow=1;glass=0;comic=1;labelBackgroundColor=#ffffff;fillColor=#F0F0F0;gradientColor=none;" parent="WIyWlLk6GJQsqaUBKTNV-1" vertex="1">
          <mxGeometry x="292.45" y="221" width="40" height="40" as="geometry" />
        </mxCell>
        <mxCell id="03yPQON_WWGw00mhkOWc-67" value="" style="whiteSpace=wrap;html=1;aspect=fixed;rounded=1;shadow=1;glass=0;comic=1;labelBackgroundColor=#ffffff;fillColor=#F0F0F0;gradientColor=none;" parent="WIyWlLk6GJQsqaUBKTNV-1" vertex="1">
          <mxGeometry x="374" y="221" width="40" height="40" as="geometry" />
        </mxCell>
        <mxCell id="03yPQON_WWGw00mhkOWc-68" value="" style="whiteSpace=wrap;html=1;aspect=fixed;rounded=1;shadow=1;glass=0;comic=1;labelBackgroundColor=#ffffff;fillColor=#F0F0F0;gradientColor=none;" parent="WIyWlLk6GJQsqaUBKTNV-1" vertex="1">
          <mxGeometry x="445.25" y="220" width="40" height="40" as="geometry" />
        </mxCell>
        <mxCell id="03yPQON_WWGw00mhkOWc-69" value="" style="rounded=0;comic=1;strokeWidth=2;endArrow=blockThin;html=1;fontFamily=Comic Sans MS;fontStyle=1;" parent="WIyWlLk6GJQsqaUBKTNV-1" edge="1">
          <mxGeometry width="50" height="50" relative="1" as="geometry">
            <mxPoint x="232.96" y="270.00000000000006" as="sourcePoint" />
            <mxPoint x="232.96" y="309.66" as="targetPoint" />
          </mxGeometry>
        </mxCell>
        <mxCell id="03yPQON_WWGw00mhkOWc-76" value="" style="shape=image;html=1;verticalAlign=top;verticalLabelPosition=bottom;labelBackgroundColor=#ffffff;imageAspect=0;aspect=fixed;image=https://cdn2.iconfinder.com/data/icons/buttons-9/128/Button_Power_On-01.png;rounded=1;shadow=1;glass=0;comic=1;fillColor=#F0F0F0;gradientColor=none;" parent="WIyWlLk6GJQsqaUBKTNV-1" vertex="1">
          <mxGeometry x="236" y="226.88" width="15" height="15" as="geometry" />
        </mxCell>
        <mxCell id="03yPQON_WWGw00mhkOWc-81" value="" style="rounded=0;comic=1;strokeWidth=2;endArrow=blockThin;html=1;fontFamily=Comic Sans MS;fontStyle=1;" parent="WIyWlLk6GJQsqaUBKTNV-1" edge="1">
          <mxGeometry width="50" height="50" relative="1" as="geometry">
            <mxPoint x="313" y="271" as="sourcePoint" />
            <mxPoint x="313" y="310.6600000000001" as="targetPoint" />
          </mxGeometry>
        </mxCell>
        <mxCell id="03yPQON_WWGw00mhkOWc-84" value="" style="rounded=0;comic=1;strokeWidth=2;endArrow=blockThin;html=1;fontFamily=Comic Sans MS;fontStyle=1;" parent="WIyWlLk6GJQsqaUBKTNV-1" edge="1">
          <mxGeometry width="50" height="50" relative="1" as="geometry">
            <mxPoint x="393.71" y="270.34" as="sourcePoint" />
            <mxPoint x="393.71" y="310.00000000000006" as="targetPoint" />
          </mxGeometry>
        </mxCell>
        <mxCell id="03yPQON_WWGw00mhkOWc-87" value="" style="rounded=0;comic=1;strokeWidth=2;endArrow=blockThin;html=1;fontFamily=Comic Sans MS;fontStyle=1;" parent="WIyWlLk6GJQsqaUBKTNV-1" edge="1">
          <mxGeometry width="50" height="50" relative="1" as="geometry">
            <mxPoint x="466" y="271" as="sourcePoint" />
            <mxPoint x="466" y="310.6600000000001" as="targetPoint" />
          </mxGeometry>
        </mxCell>
        <mxCell id="03yPQON_WWGw00mhkOWc-107" value="" style="aspect=fixed;html=1;points=[];align=center;image;fontSize=12;image=img/lib/mscae/Docker.svg;rounded=1;shadow=1;glass=0;comic=1;labelBackgroundColor=#F0F0F0;fillColor=#F0F0F0;gradientColor=none;" parent="WIyWlLk6GJQsqaUBKTNV-1" vertex="1">
          <mxGeometry x="296.51000000000005" y="226.88" width="16" height="13.12" as="geometry" />
        </mxCell>
        <mxCell id="03yPQON_WWGw00mhkOWc-109" value="" style="aspect=fixed;html=1;points=[];align=center;image;fontSize=12;image=img/lib/mscae/Docker.svg;rounded=1;shadow=1;glass=0;comic=1;labelBackgroundColor=#F0F0F0;fillColor=#F0F0F0;gradientColor=none;" parent="WIyWlLk6GJQsqaUBKTNV-1" vertex="1">
          <mxGeometry x="376.61" y="226.88" width="16" height="13.12" as="geometry" />
        </mxCell>
        <mxCell id="03yPQON_WWGw00mhkOWc-110" value="" style="shape=image;html=1;verticalAlign=top;verticalLabelPosition=bottom;labelBackgroundColor=#ffffff;imageAspect=0;aspect=fixed;image=https://cdn2.iconfinder.com/data/icons/buttons-9/128/Button_Power_On-01.png;rounded=1;shadow=1;glass=0;comic=1;fillColor=#F0F0F0;gradientColor=none;" parent="WIyWlLk6GJQsqaUBKTNV-1" vertex="1">
          <mxGeometry x="397.31" y="226.88" width="15" height="15" as="geometry" />
        </mxCell>
        <mxCell id="03yPQON_WWGw00mhkOWc-111" value="" style="aspect=fixed;html=1;points=[];align=center;image;fontSize=12;image=img/lib/mscae/Docker.svg;rounded=1;shadow=1;glass=0;comic=1;labelBackgroundColor=#F0F0F0;fillColor=#F0F0F0;gradientColor=none;" parent="WIyWlLk6GJQsqaUBKTNV-1" vertex="1">
          <mxGeometry x="448.14" y="226.88" width="16" height="13.12" as="geometry" />
        </mxCell>
        <mxCell id="03yPQON_WWGw00mhkOWc-112" value="" style="shape=image;html=1;verticalAlign=top;verticalLabelPosition=bottom;labelBackgroundColor=#ffffff;imageAspect=0;aspect=fixed;image=https://cdn2.iconfinder.com/data/icons/buttons-9/128/Button_Power_On-01.png;rounded=1;shadow=1;glass=0;comic=1;fillColor=#F0F0F0;gradientColor=none;" parent="WIyWlLk6GJQsqaUBKTNV-1" vertex="1">
          <mxGeometry x="468.84000000000003" y="226.88" width="15" height="15" as="geometry" />
        </mxCell>
        <mxCell id="03yPQON_WWGw00mhkOWc-149" value="" style="rounded=0;comic=1;strokeWidth=2;endArrow=blockThin;html=1;fontFamily=Comic Sans MS;fontStyle=1;" parent="WIyWlLk6GJQsqaUBKTNV-1" edge="1">
          <mxGeometry width="50" height="50" relative="1" as="geometry">
            <mxPoint x="512.25" y="270" as="sourcePoint" />
            <mxPoint x="562.25" y="270.45" as="targetPoint" />
          </mxGeometry>
        </mxCell>
        <mxCell id="03yPQON_WWGw00mhkOWc-150" value="Microservices" style="text;html=1;align=center;verticalAlign=middle;whiteSpace=wrap;rounded=0;shadow=1;glass=1;dashed=1;comic=1;labelBackgroundColor=#FFFFFF;" parent="WIyWlLk6GJQsqaUBKTNV-1" vertex="1">
          <mxGeometry x="326.51" y="190" width="53.49" height="20" as="geometry" />
        </mxCell>
        <mxCell id="03yPQON_WWGw00mhkOWc-152" value="" style="rounded=0;comic=1;strokeWidth=2;endArrow=blockThin;html=1;fontFamily=Comic Sans MS;fontStyle=1;" parent="WIyWlLk6GJQsqaUBKTNV-1" edge="1">
          <mxGeometry width="50" height="50" relative="1" as="geometry">
            <mxPoint x="347" y="152" as="sourcePoint" />
            <mxPoint x="318" y="189.6" as="targetPoint" />
          </mxGeometry>
        </mxCell>
        <mxCell id="03yPQON_WWGw00mhkOWc-153" value="" style="rounded=0;comic=1;strokeWidth=2;endArrow=blockThin;html=1;fontFamily=Comic Sans MS;fontStyle=1;" parent="WIyWlLk6GJQsqaUBKTNV-1" edge="1">
          <mxGeometry width="50" height="50" relative="1" as="geometry">
            <mxPoint x="357.61" y="152.4" as="sourcePoint" />
            <mxPoint x="384" y="190.00000000000003" as="targetPoint" />
          </mxGeometry>
        </mxCell>
        <mxCell id="03yPQON_WWGw00mhkOWc-155" value="" style="shape=image;html=1;verticalAlign=top;verticalLabelPosition=bottom;labelBackgroundColor=#ffffff;imageAspect=0;aspect=fixed;image=https://cdn1.iconfinder.com/data/icons/logotypes/32/internet-explorer-128.png;rounded=1;shadow=1;glass=1;dashed=1;comic=1;strokeColor=#000000;strokeWidth=1;fillColor=#FFFFFF;gradientColor=none;" parent="WIyWlLk6GJQsqaUBKTNV-1" vertex="1">
          <mxGeometry x="380" y="30" width="23" height="23" as="geometry" />
        </mxCell>
        <mxCell id="03yPQON_WWGw00mhkOWc-161" value="" style="outlineConnect=0;fontColor=#232F3E;gradientColor=#4D72F3;gradientDirection=north;fillColor=#3334B9;strokeColor=#ffffff;dashed=0;verticalLabelPosition=bottom;verticalAlign=top;align=center;html=1;fontSize=12;fontStyle=0;aspect=fixed;shape=mxgraph.aws4.resourceIcon;resIcon=mxgraph.aws4.database;rounded=1;shadow=1;glass=1;comic=1;labelBackgroundColor=#FFFFFF;" parent="WIyWlLk6GJQsqaUBKTNV-1" vertex="1">
          <mxGeometry x="213" y="310" width="38" height="38" as="geometry" />
        </mxCell>
        <mxCell id="03yPQON_WWGw00mhkOWc-162" value="" style="outlineConnect=0;fontColor=#232F3E;gradientColor=#4D72F3;gradientDirection=north;fillColor=#3334B9;strokeColor=#ffffff;dashed=0;verticalLabelPosition=bottom;verticalAlign=top;align=center;html=1;fontSize=12;fontStyle=0;aspect=fixed;shape=mxgraph.aws4.resourceIcon;resIcon=mxgraph.aws4.database;rounded=1;shadow=1;glass=1;comic=1;labelBackgroundColor=#FFFFFF;" parent="WIyWlLk6GJQsqaUBKTNV-1" vertex="1">
          <mxGeometry x="291" y="310" width="38" height="38" as="geometry" />
        </mxCell>
        <mxCell id="03yPQON_WWGw00mhkOWc-164" value="" style="outlineConnect=0;fontColor=#232F3E;gradientColor=#4D72F3;gradientDirection=north;fillColor=#3334B9;strokeColor=#ffffff;dashed=0;verticalLabelPosition=bottom;verticalAlign=top;align=center;html=1;fontSize=12;fontStyle=0;aspect=fixed;shape=mxgraph.aws4.resourceIcon;resIcon=mxgraph.aws4.database;rounded=1;shadow=1;glass=1;comic=1;labelBackgroundColor=#FFFFFF;" parent="WIyWlLk6GJQsqaUBKTNV-1" vertex="1">
          <mxGeometry x="376" y="310" width="38" height="38" as="geometry" />
        </mxCell>
        <mxCell id="03yPQON_WWGw00mhkOWc-166" value="" style="outlineConnect=0;fontColor=#232F3E;gradientColor=#4D72F3;gradientDirection=north;fillColor=#3334B9;strokeColor=#ffffff;dashed=0;verticalLabelPosition=bottom;verticalAlign=top;align=center;html=1;fontSize=12;fontStyle=0;aspect=fixed;shape=mxgraph.aws4.resourceIcon;resIcon=mxgraph.aws4.database;rounded=1;shadow=1;glass=1;comic=1;labelBackgroundColor=#FFFFFF;" parent="WIyWlLk6GJQsqaUBKTNV-1" vertex="1">
          <mxGeometry x="445.25" y="310" width="38" height="38" as="geometry" />
        </mxCell>
        <mxCell id="PknwNR-NVuLqpfMxcqzn-1" value="" style="aspect=fixed;html=1;points=[];align=center;image;fontSize=12;image=img/lib/mscae/Docker.svg;rounded=1;shadow=1;glass=0;comic=1;labelBackgroundColor=#F0F0F0;fillColor=#F0F0F0;gradientColor=none;" vertex="1" parent="WIyWlLk6GJQsqaUBKTNV-1">
          <mxGeometry x="387.81" y="13.439999999999998" width="16" height="13.12" as="geometry" />
        </mxCell>
        <mxCell id="PknwNR-NVuLqpfMxcqzn-2" value="FPSdi" style="text;html=1;strokeColor=none;fillColor=none;align=center;verticalAlign=middle;whiteSpace=wrap;rounded=0;fontSize=6;fontStyle=1" vertex="1" parent="WIyWlLk6GJQsqaUBKTNV-1">
          <mxGeometry x="218.3" y="245.21" width="30" height="10" as="geometry" />
        </mxCell>
        <mxCell id="PknwNR-NVuLqpfMxcqzn-3" value="C.Ope" style="text;html=1;strokeColor=none;fillColor=none;align=center;verticalAlign=middle;whiteSpace=wrap;rounded=0;fontSize=6;fontStyle=1" vertex="1" parent="WIyWlLk6GJQsqaUBKTNV-1">
          <mxGeometry x="296.51" y="246.5" width="30" height="10" as="geometry" />
        </mxCell>
        <mxCell id="PknwNR-NVuLqpfMxcqzn-4" value="Sintesi" style="text;html=1;strokeColor=none;fillColor=none;align=center;verticalAlign=middle;whiteSpace=wrap;rounded=0;fontSize=6;fontStyle=1" vertex="1" parent="WIyWlLk6GJQsqaUBKTNV-1">
          <mxGeometry x="380" y="245.21" width="30" height="10" as="geometry" />
        </mxCell>
        <mxCell id="PknwNR-NVuLqpfMxcqzn-5" value="" style="aspect=fixed;html=1;points=[];align=center;image;fontSize=12;image=img/lib/azure2/compute/Azure_Spring_Cloud.svg;" vertex="1" parent="WIyWlLk6GJQsqaUBKTNV-1">
          <mxGeometry x="236.12" y="226" width="14.88" height="14" as="geometry" />
        </mxCell>
        <mxCell id="PknwNR-NVuLqpfMxcqzn-6" value="" style="aspect=fixed;html=1;points=[];align=center;image;fontSize=12;image=img/lib/azure2/compute/Azure_Spring_Cloud.svg;" vertex="1" parent="WIyWlLk6GJQsqaUBKTNV-1">
          <mxGeometry x="317.57" y="226" width="14.88" height="14" as="geometry" />
        </mxCell>
        <mxCell id="PknwNR-NVuLqpfMxcqzn-7" value="" style="aspect=fixed;html=1;points=[];align=center;image;fontSize=12;image=img/lib/azure2/compute/Azure_Spring_Cloud.svg;" vertex="1" parent="WIyWlLk6GJQsqaUBKTNV-1">
          <mxGeometry x="395.12" y="226" width="14.88" height="14" as="geometry" />
        </mxCell>
        <mxCell id="PknwNR-NVuLqpfMxcqzn-8" value="" style="aspect=fixed;html=1;points=[];align=center;image;fontSize=12;image=img/lib/azure2/compute/Azure_Spring_Cloud.svg;" vertex="1" parent="WIyWlLk6GJQsqaUBKTNV-1">
          <mxGeometry x="470.37" y="226" width="14.88" height="14" as="geometry" />
        </mxCell>
        <mxCell id="PknwNR-NVuLqpfMxcqzn-10" value="Scudo" style="text;html=1;strokeColor=none;fillColor=none;align=center;verticalAlign=middle;whiteSpace=wrap;rounded=0;fontSize=6;fontStyle=1" vertex="1" parent="WIyWlLk6GJQsqaUBKTNV-1">
          <mxGeometry x="450.25" y="246.5" width="30" height="10" as="geometry" />
        </mxCell>
      </root>
    </mxGraphModel>
  </diagram>
</mxfile>
